<?xml version="1.0" encoding="utf-8"?>
<!-- Generator: Adobe Illustrator 26.0.1, SVG Export Plug-In . SVG Version: 6.00 Build 0)  -->
<svg version="1.1" id="Слой_1" xmlns="http://www.w3.org/2000/svg" xmlns:xlink="http://www.w3.org/1999/xlink" x="0px" y="0px"
	 viewBox="0 0 1397.1 175" style="enable-background:new 0 0 1397.1 175;" xml:space="preserve">
<style type="text/css">
	.st0{fill:#BF2600;}
	.st1{fill:#BF2600;stroke:#000000;stroke-width:2;stroke-linecap:round;stroke-linejoin:round;stroke-miterlimit:10;}
</style>
<g>
	<path class="st0" d="M102.9,61.6c1.9,2,4,2.3,6.3,2.6c6.6,0.8,11.7-2.2,16.7-5.7c1.6-1.1,3.4-1.7,4.8-2.8c1.1-0.9,2.3,0,3.1-1
		c1-1.1,2.1-2.1,3.2-3.2c4.3-4.4,9.4-8,14-12.1c6-5.4,12.4-10.4,17.6-16.6c2.9-3.5,5.3-7.4,7.3-11.5c1-1.9,1.4-4,4-4.8
		c2.3-0.7,4.6-0.8,6.7-0.2c2.9,0.8,5.7,2.2,8.6,3.4c2,0.8,3.7,1.7,3.9,4.3c0.1,1.4,1.5,2.4,2.9,3c3.5,1.3,5.7,3.8,6.8,7.3
		c0.2,0.6,0.3,1.3,0.7,1.7c1.4,1.1,2,2.8,3.3,4c0.4,0.4,1.1,0.2,1.2,1.1c0.3,3.8,1.4,7.3,2.9,10.8c0.2,0.5,0,1.3,0,2.1
		c-1.3,0.1-2.5,0.1-3.6,0.2c-0.1,0.3-0.4,0.5-0.4,0.8c0,2.7-0.2,5.4,0,8c0.3,3.5-0.8,6.7-2.2,9.6c-0.6,1.3-1.2,2.7-0.7,3.6
		c1.4,2.3,0.8,4.8,0.8,7.1c0,2.2,0.4,4.4-0.8,6.6c-0.7,1.3,0,3.3-0.4,4.8c-0.7,2.8-1.5,5.7-3.2,8.2c-0.5,0.8-0.5,1.5-0.5,2.3
		c0,2-0.2,4,0,6c0.6,5.1-0.7,10.1-1.2,15.1c-0.5,4.7-2.6,9.2-4.2,13.7c-2.1,5.6-4.4,11.2-6.7,16.7c-1.2,2.8-2.6,5.6-3.8,8.4
		c-0.4,1-1,1.7-1.9,1.9c-3.4,0.8-6.3,2.6-9.2,4.5c-1.9,1.3-4.4,1.2-6.5,2.4c-1,0.6-2.8-0.7-3.6-1.7c-3.6-4.2-7.1-8.5-7.7-14.3
		c-0.1-1.5-1.4-2.5-1.1-4.1c0.2-1.5,0.1-3,0-4.5c0-1,0.2-1.9-0.7-2.7c-0.4-0.3-0.5-1.5-0.2-1.8c1.7-2.1,0.8-4.4,0.9-6.6
		c0.2-2.6,0-5.1,0.9-7.6c0.8-2.3-0.6-5.2,1.1-7.5c0.5-6.8,2.9-13.2,4.1-19.8c0.3-1.9,0.9-4.1,2.1-5.6c1.1-1.4,0.7-2.8,0.9-4.1
		c-1.1-1-2.3-0.3-3.4-0.5c-1,0.6-0.7,2.2-1.8,2.7c-4.3,2-7.7,5.4-11.8,7.8c-4.6,2.7-9,5.7-13.5,8.4c-2.8,1.7-5.7,3.2-8.6,4.6
		c-3.5,1.6-7.1,3-10.6,4.5s-7.4,2.1-10.8,4c-0.1,0.1-0.3,0-0.5,0c-4.9-0.3-9.6,1.8-14.6,1c-4.9-0.8-9.8-1.7-14.2-4.2
		c-4.9-2.7-7-5-11.3-10.1c-2.8-3.3-4.3-7.4-7.5-10.8c-5.4,9.3-9.8,18.8-10.5,29.9c-3.2,2.6-5.6,6.1-7.8,9.9c-1.1,1.8-1.5,4-0.8,5.5
		c0.7,1.7,0,2.6-0.6,3.6c-0.7,1.3-2,2.2-3.1,3.2c-2.5,2.1-3.6,4.9-3.5,8.1c0,1.5-0.4,2.8-1,4.1c-1.1,2.2-2.2,4.4-3.3,6.6
		c-1.4,2.9-4,4.7-6.2,7.2c-3,0-6.1,0-9.2,0c-2,0-3.1-0.7-4.5-2.5c-3.8-5.1-5.9-10.9-7.8-16.8c-1.2-3.8-1.9-7.7-2-11.7
		c-0.1-3.5,0.2-7-0.1-10.5c-0.4-5,1.2-9.4,3.1-13.7c3.1-7.4,6.7-14.6,9.5-22c1.5-3.9,3.3-7.6,4.8-11.5c1.4-3.9,3.9-7.4,5.1-11.4
		c1.6-5.4,5.6-9.7,6.6-15.3c3.2-4.1,4.6-9.1,7.3-13.5s5.3-8.8,8.1-13.2c2.3-3.5,4.2-7.3,6.6-10.8C57.1,7.3,58.1,5.7,67.3,1
		c0.6-0.3,1.1-0.7,1.7-1c3.7,1.6,7.9,2.7,10.3,7c0.1,3,0.2,2.8,3.3,4.1c2.3,1,4.6,2.1,7.2,1.9c1.8-0.1,2.8,1.4,3.4,2.5
		c1,1.8,2.3,3.4,3.2,5.1c2,3.7,4.5,7,6.1,11c2,5,2.7,6.5,0.6,10.8c-1.2,2.4-0.6,3.9,0.2,5.7c0.7,1.4,1.9,2.7,0.1,4.3
		c-0.3,0.2-0.1,0.9-0.1,1.4C102.9,56.6,102.9,59.2,102.9,61.6z"/>
	<path class="st0" d="M1109.5,85.1c0.6-1,1.6-1,2.6-1c4.4-0.1,6.3,0.5,9.7,3.3c0.3,0.2,0.4,0.5,0.7,0.7c2.4,1.1,5.3,1.1,7.1,3.2
		c1.7,2,3.9,3.2,6.3,4.2c0.3,0.1,0.5,0.5,0.8,0.8c-3.4,9.8-11.2,15.2-19.7,20.4c-0.2,1.7-0.1,3.5,0.9,5.3c0.8,1.5,0,3.4,0.6,5.2
		c1,3.1,1.9,6.8,1.3,9.8c-0.9,4.3-2.2,8.6-4.7,12.5c-2.3,3.8-5.1,7-8.3,10c-3.1,3-6.6,5.3-10.8,6.4c-2.1,0.5-3.7,2.3-6.2,2
		c-2.1-0.3-4.6,0.5-6.4-0.3c-1.7-0.9-3.6-1.9-5.2-3.1c-1.3-1-2.9-1.4-4.3-3.2c0-1.1,0-2.7,0-4.3c0-2-0.8-4.4-2.5-4.8
		c-2.5-0.6-2.3-2.9-3.7-4.1c-1.5-1.2-2.7-2.8-4.1-4.2c2.7-2.2,5.8-2.1,8.5-3c3.3-1,6.6-2,8.1-5.7c0.3-0.7,0.7-1.4,0.7-2.2
		c0-2,0-3.9,0-6.1c-4.4,0.1-8.4-0.1-12.5,1.7c-3,1.3-6.7,1.8-10.1,2.1c-2,0.2-3.6,1.3-5.6,1.2c-1.8-0.2-3.4,0.6-5.1,0.9
		c-2,0.3-4.2,0.9-6.2-0.7c-0.4-0.3-1.3-0.3-1.9-0.2c-2,0.3-3.7-0.5-5.5-1.3c-0.2-1.4-0.4-2.7-1.7-3.8c-2.5-2-4.1-4.6-3.5-8
		c0.2-1.4-0.6-2.1-1.8-3.2c-1.5,3.5-2.3,7.4-6.2,8.6c0,0.8,0,1.3,0.4,1.7c0.4,0.3,0.6,0.7,0.4,2.1c-0.6,0.5-1.7,1.5-2.9,2.4
		c-1.2,0.8-1.8,2.4-1.8,3.2c-0.2,4.1-2.9,7.2-3.5,11.1c-0.4,2.4-1.9,4.7-1.6,7.3c0.3,2.4-1.4,4.1-2,6.2c-0.3,0.9-1.1,0.5-1.5,0.8
		c-1.1,1-2.5,1.2-3.7,1.9c-1.8,1.1-3.7,2.1-3.9,5c-2.8-0.4-5.4,0.5-7.8,1.5c-2.8,1.2-4.8,0-6.5-1.4c-2.6-2.2-5.3-4.1-7.9-6.2
		c-1.8-1.4-2.5-4.1-2.6-6.2c-0.1-3.6-1.7-6.1-4.4-8.4c1.3-1.8,2.6-3.5,2.4-6.1c-0.1-2,1.5-4,2.3-6c0.9-2.4,2.1-4.8,3.1-7.2
		c3.1-7,6.5-14,9.9-20.9c2.5-5.1,4.6-10.4,7.3-15.5c2.7-5,4.8-10.3,7.6-15.3c0.7-1.3,0-3.1,1.6-3.8c-0.3-2.5,0.4-4.7,2-6.7
		c1.5-1.8,2.3-4,3.5-6.1c1.8-3,3.8-6,4.5-9.6c0.1-0.4,0.3-0.9,0.6-1.3c3.2-5.6,5.8-11.7,11.1-15.9c1.6-0.3,3.5,0.7,5-1
		c0.3-0.3,1.5-0.3,1.9,0.1c2.4,1.9,3.8,0.2,5.9-0.8c3.1-1.4,5.4-3.5,7.5-5.9c2.1-2.3,5.1-3.8,6-7c4.2-4,6.3-9.6,10.6-13.5
		c5.8,3,12,4.5,18.1,6.2c3.7,1,7.6,2.2,10.3,5.4c1.3,1.5,1.8,3.2,2.1,5.2c0.6,5,1.2,10,2.8,14.8c0.3,0.7,0.1,1.6,0.1,2.4
		c0,2.3-0.6,4.9,0.2,6.9c0.8,1.9,0,4.3,1.8,5.7c-0.6,4.3,1.8,8,2.2,12.1c0.2,2,0.1,4.4,1,6c1.3,2.2,0.3,4.4,1.3,6.5
		c0.9,1.8,1.4,3.7,1.6,5.9C1106.2,82.1,1107.8,83.8,1109.5,85.1z M1061.5,63.1c-10.3,9-15.9,21.2-23.6,31.9c-0.1,0.1,0,0.3,0,0.5
		c0,0.1,0.1,0.3,0.4,0.7c4.8-0.5,9.9,1,14.8-1c4.6,0.4,9.1-0.5,13.6-0.9c1.4-0.1,2.5-0.3,3.2-1.7c-0.9-0.4-0.9-1.2-0.9-2
		c0-1.3,0.2-2.7-0.2-3.9c-1.7-4.9-2.6-9.9-3.9-14.9C1064,68.8,1063.7,65.7,1061.5,63.1z"/>
	<path class="st0" d="M513.2,70.5c-2.5-1.1-4,0.6-5.6,0.5c-5.1-0.2-10,1.5-15.1,1.2c-5.1-0.4-10.3-0.1-15.5-0.1
		c-1,0-1.8-0.6-2.6-0.9c-3.1-1.3-4.7-4-6.9-6.2c-1.1-1.1-1.5-3.2-1.5-4.8c0-2.4-1.8-3.9-2.2-6.1c-1.4-6.3-1-6.5,0.9-10.4
		c0.5-1,2-1.8,1-3.6c4.3,0,8.1-0.2,11.9,0c7.2,0.5,14.3-1.8,21.6-1c4.1-1.7,8.4-0.4,12.6-1.1c3.2-0.5,6.3-1.1,9.5-0.8
		c1.9-1.3,2-3.8,4.6-5.1c0.5,0,1.7,0.1,2.8,0c1.7-0.1,3.1,0.2,4.4,1.6c1.7,1.7,4.4,2.2,6.3,1.3c1.8-1,3.5-0.8,5.2-0.8
		c3.7,0,7.3-0.7,10.7-1.9c0.6-0.2,1.3-0.2,1.9-0.2c4.4,0.1,8.6-1.7,13.1-1c7.1-2.1,14.4-0.5,21.6-1c2.4-0.2,4.3,0.7,6,2.4
		c2.1,2.1,4.2,4.2,6.6,6.6c2.9-3.1,6.2-5.7,10.2-7.3c0.6-0.2,1-0.7,1.7-0.8c4.5-0.5,5.7,0.3,6.6,5.4c0.5,2.5,1.4,4.8,1.8,7.2
		c0.5,2.9,1.9,4.4,4.2,5.8c0,2.7,0,5.3,0,8c0,0.8,1.9,6.3,1.9,7.2c0,1.7,1.1,1.7,2.5,1.7c-3.4,7.5-5.6,14.9-8,22.2
		c-0.8,2.3-1.7,4.6-2.3,7s-0.7,5-2.1,7.2c0.6,4.4-1.5,8.4-2.2,12.6c-0.9,5.3-0.6,10.4-0.7,15.6c-0.2,5.3-0.5,10.7,0.1,16
		c0.4,3.5,0.8,7,0.8,10.6c0,2-0.7,3.6-2,5.2c-3.8,4.4-8.4,6.9-14.3,6.5c-2-0.1-4,0-6.2,0c-3.6-3.2-4.8-7.8-6.5-12.1
		c-1.3-3.5-2.2-7.1-3.3-10.6c-0.7-2.2-1.8-4.4-1.7-6.8c0-2.3-1.2-4.2-1.1-6.6c0.1-3.9,1.6-7.6,1.2-11.6c-0.4-3.8-0.6-7.8,0-11.5
		c0.9-5.4,1.9-10.7,3.4-16c0.8-2.8,1.9-5.6,2.8-8.4c0.8-2.6,0.7-5.6,2.7-7.9c0-4.1,2.6-8,0.2-12.2c-0.4-0.7,0.3-3,2.3-3.4
		c0.7-0.1,0.7-1,0.3-1.7c-1,0.2-1.8,0.9-2.9,0.8c-3.2-0.1-6.3,0.1-9.5-0.1c-4.8-0.3-9.4,1-14.1,1.3c-4.3,0.2-8.9,0.9-13.1,2
		c-2.6,0.6-5.1,0.6-7.8,0.9c-2.8,5.9-5,12.1-7.8,18.1c-3.2,7-5.4,14.5-9.4,21.1c-0.4,4.2-3.2,7.3-4.9,11c-1.1,2.2-2.3,4.5-2.2,7
		c0,1.4-0.7,2.6-1.4,3.4c-2.9,3.4-3.7,7.5-4.5,11.6c-0.3,1.3-1.4,2.1-1.2,3.6c0.2,1.2-0.3,2.4-0.8,3.6c-1.2,3.3,0.7,6.3,4.3,8.6
		c1.3,0.8,2.9,1.2,3.8,3.3c0.9,2,1,4,0.6,5.6c-0.5,1.5-0.6,3.3-1.9,4.7c-2.3,2.4-4.9,3.8-8.3,4.3c-2,0.3-3.9,1.4-6.5,0.6
		c-1.2-1-2.7-2.2-4.7-3.1c-2.1-0.9-4-2.9-6.3-4.1c-1.2-0.6-2-1.9-2.6-3.4c-1.4-3.4-2.6-6.9-3.5-10.5c-0.3-1.2-0.7-2.4-1.1-3.6
		c-1.5-4.5-1.2-10-0.2-16.7c0.4-2.7,0-5.7,1.4-7.9c1.5-2.4,1.7-5,2.6-7.4c1.9-5,3.9-10.1,5.7-15.1c0.6-1.6,1.2-3.2,1.8-4.8
		c0.6-1.9,1.3-3.8,1.8-5.8c0.5-1.9,2.1-3,3-4.8C509.3,80.1,511,75.3,513.2,70.5z"/>
	<path class="st0" d="M1194.8,123.7c0.4,1.7,1.7,2.6,2.8,3.4c3.4,2.2,6.6,4.9,10.3,6.4c4.5,1.9,9,4.1,14.1,4.8
		c2.7,0.3,5.5,0.9,8.2,1.8c3.4,1.1,7,2.3,10.6,2c1.6-0.1,2.5,1.4,4.1,1.1c1.5-0.2,3-0.2,4.5,0c1.6,0.2,3.2,0.9,4.1,2.1
		c3.8,5.7,5.9,10.4,3.5,16.3c-0.6,1.4,0.4,2.4,0.9,3.5c-1.7,3.1-3.8,5.7-6.5,8c-2.5-0.3-4.8,0.9-7.2,1.5c-2.3,0.6-4.2,0.5-6.5,0
		c-3.5-0.8-7-1.6-10.5-2.4c-5-1.2-9.7-3-14.5-4.8c-4.8-1.7-9.6-3.5-14.3-5.3c-4.2-1.6-8.1-3.8-12-6c-5.3-3-10.1-6.7-14.4-11.6
		c-1.9,2.1-2.5,4.5-2.9,6.6c-1.1,5-3.9,9.1-6.1,13.5c-0.3,0.6-1,1.4-1.3,1.4c-2.9-0.4-4.6,1.9-6.8,2.9c-1.5,0.6-3,0.7-4.4-0.7
		c-1.3-1.3-3-2.3-5-1.9c-0.6-2.7-0.6-2.7-4.4-5.6c0.7-2.7-0.8-5.2-0.9-7.9c0-1-0.6-1.4-1.1-2.1c-1.4-1.8-1.5-2.5-1-5.3
		c0.1-0.5,0.1-1,0-1.5c-0.5-3.9,1.8-7.4,2-11.2c1.9-1,0.3-3.1,1.4-4.4c1.3-1.4,0.8-3.2,0.5-4.7c-0.4-2.3,1.3-3.9,1.1-6.1
		c-0.2-2-0.5-4.1,0.1-6c1-3.2,2.1-6.5,3.1-9.7c0.4-1.4,0.2-3.1,0.9-4c1-1.3,0.5-2.5,0.9-3.7c1.6-5.4,1.9-11,3.8-16.4
		c0.8-2.3,1.2-4.9,1.6-7.3c0.2-0.9,0.9-1.6,1.4-2.4c1.7-3.2,1.7-3,5.5-2c1.9,0.5,3.8,1.8,6,1.3c6.3-4.7,10-11.6,14.7-17.7
		c5.2-6.9,10.3-13.9,18.7-17.5c1.9-0.8,3.7-1.7,5.8-1.8c2.8-0.2,5.2,0.5,7.5,2.4c3.1,2.6,7.1,4.1,10,7.2c1.2,1.3,2.6,2.3,3.3,4.1
		c0.9,2.1,3.5,2.6,5.2,4.2c0.7,0.6,1.2,1,1.7,1.8c1.6,2.9,3.4,5.6,5.3,8.3c1.8,2.6,2,5.8,3.4,8.6c1.7,3.1,1.8,6.9,4,9.8
		c0,4.4,1.8,8.6,1.1,13c-0.3,2.5-1.8,4.6-2.1,7.1c-0.1,1-1.3,2.2-2.1,3c-4,4.4-8.2,8.7-13.6,11.5c-6.6,3.4-13.7,5.6-20.7,7.9
		C1203.8,120.6,1199.3,122.1,1194.8,123.7z M1202.5,68.9c-2.4,2.4-4.7,4.9-7.1,7.2c-2.3,2.3-4.5,4.7-6.3,7.4
		c-2.2,3.2-4.7,6.3-4,10.6c1.9,0.3,3.4-0.5,4.9-0.8c7.4-1.3,14-4.8,20.8-7.6c3.7-1.5,3.6-1.8,2.2-6.1c0.8-2.2-1.3-3.2-2.1-4.6
		C1209,72.1,1206.7,69.6,1202.5,68.9z"/>
	<path class="st0" d="M423.7,30.2c1.2,2.3,3.6,3.4,5.6,4.6c3.4,2,6.2,4.5,9,7.2c2.4,2.2,4.1,5.2,7.3,6.4c0.4,0.2,1,0.6,1,1
		c0.9,4.4,4.7,7.3,6.2,11.4c1.4,3.9,2.7,7.9,4,11.8c0.1,0.4,0.3,0.9,0.4,1.3c0.6,2.1,2.6,3.5,2.2,6.2c-0.2,2,0.3,4.2,0.4,6.4
		c0.3,4.1-0.8,7.8-3,11.3c-0.2,0.2,0,0.7-0.2,0.9c-4.5,4.5-8.6,9.3-14.4,12.3c-6.6,3.4-13.7,5.6-20.7,8c-4.5,1.5-9.1,3-13.6,4.4
		c-0.4,1.5,0.9,2.1,1.7,2.8c3.8,2.8,7.8,5.4,11.9,7.6c3.3,1.8,7.2,2.8,10.8,4c1.2,0.4,2.6,0.3,3.9,0.1c1.4-0.2,2.3,0.9,3.6,1.2
		c3.5,0.7,6.9,1.7,10.4,2.6c0.5,0.1,1,0.3,1.4,0.2c3.6-0.7,7,1.7,10.6,1c0.9-0.2,1.6,0.8,2.1,0.8c2.4,0.1,2.3,2.5,3.5,3.6
		s1.9,2.3,2.3,4.1c0.7,2.7,0.8,5.4,0.8,8.1c0,0.9,0.2,1.9-0.7,2.7c-1.1,1,0.5,1.6,0.7,2.4c-1.5,3.1-3.6,5.7-6.4,8.1
		c-2.4-0.1-5,0.9-7.5,1.7c-1,0.3-1.9,0.5-2.8,0.4c-4-0.7-8.1-1.2-12-2.3c-4.9-1.3-9.8-2.9-14.5-4.7c-5.8-2.2-11.7-3.9-17.2-6.8
		c-1.9-1-4.2-1.2-6.1-2.2c-6.3-3.4-12.3-7.2-17.4-12.3c-0.7-0.7-1.1-1.7-2.4-1.6c-1.5,4.1-3.1,8.3-4.6,12.4c-0.1,0.3-4,7.1-4.2,7.3
		c-0.5,0.4-1.1,1.3-1.4,1.2c-3.5-0.9-5.1,3.3-8.3,3.1c-0.3,0-0.8,0.1-1,0c-2.1-1.9-5.4-2.2-7-4.6c-0.7-1.1-1.6-1.7-2.4-2.5
		c-1.1-1.1-1.6-3.1-1.6-4.7c0-2.7-0.4-5.1-2.4-7c-0.6-0.5-0.6-1-0.7-1.7c-0.3-3.8,0.2-8.7,1.5-12.4c1.5-4.4,3-8.7,2.5-13.4
		c-0.1-1.1,0.6-2.2,0.8-3.1c0.4-2.3,1.7-4.5,1.2-7.1s0.7-5,1.4-7.4c1.1-3.4,1.9-6.9,2.7-10.4c0.8-3.6,1-7.4,2.5-10.9
		c0.9-2.1,1-4.6,1.3-7c0.4-3.3,1.5-6.3,3-9.3c1.3-2.6,2.2-3.2,4.8-2.1c2.1,0.9,4.4,0.4,6.4,2.1c3.6-4,7.5-7.3,10.1-11.9
		c1.8-3.1,4.5-5.8,6.5-8.8c2.4-3.6,5.5-6.5,8.5-9.5c3.4-3.4,7.6-5.5,12.1-7C418.4,29.7,420.9,30.2,423.7,30.2z M398,94
		c2.5,0.4,4.5-0.2,6.5-0.8c6.8-2.4,13.6-4.8,20.1-8c2.2-1.1,2.8-2.4,2.2-4.6c-0.9-3.2-4.7-8.6-7.4-10.4c-2.4-1.6-4.3-1.6-5.8,0.8
		c-2.5,4-6.2,6.8-9.3,10.1c-2.4,2.6-4.2,5.5-5.7,8.6C397.9,91.1,398,92.4,398,94z"/>
	<path class="st0" d="M211.3,149.8c2.8-1.1,2.2-3.5,2.9-5.4c1.2-3.5,2.8-6.8,4.2-10.3c2.8-7.2,6.6-13.9,9.9-20.9
		c3.9-8.2,7.8-16.4,11.7-24.7c0.1-0.3,0.7-0.5,0.7-0.7c-0.3-5.7,4.2-9.3,6-14c1.9-4.9,4.7-9.4,7.3-13.9c2.1-3.5,5.5-5.9,9.9-5.7
		c3.4,0.1,6.1-0.9,8.8-3.1c5.9-4.8,10.5-10.6,14.2-17.1c0.7-1.2,1.8-1.9,2.9-3.1c3.9,3.8,9.3,3.9,14.2,5.2c2,0.5,3.9,1.1,5.7,2
		c2.2,1.2,3.9,2.4,4.4,5.2c0.4,2.4,1.6,4.7,1.8,7.2c0.2,2.5,1.2,4.9,1.1,7.6c-0.1,4.6,1.2,9.1,2.1,13.6c0.6,2.9,1.3,5.8,1.8,8.7
		c0.7,3.5,1.5,7,2.4,10.5c0.5,2,1.1,3.9,1.6,5.8c0.4,1.7,1.3,2.3,3.1,2.4c2.1,0.1,4.1-0.5,6.2-1.3c0.9,1,1.9,1.8,2.6,2.9
		c0.3,0.4,0,1.1,1,1.4c4,1.1,7.2,3.7,10.6,5.9c0.4,0.2,0.9,0.2,1.3,0.2c1.1,1.9-0.3,3.3-1,4.5c-2.7,4.5-7.1,8.9-11.2,11.2
		c-1.4,0.7-2.2,1.8-3.5,2.7c0.2,1.7-0.6,3.7,0.4,5.3c1.1,1.6,0.4,3.2,0.6,4.8c0.3,1.7-0.7,3.7,1,5.1c-0.5,2.5-0.5,5.1-1.6,7.4
		c-3.6,7.9-9.2,14.1-17,18.2c-3.8,2-7.8,2.1-11.7,1.7c-1.9-0.2-3.2-2.3-5.2-3c-0.7-0.2-1.4-0.7-2.1-1c-1.5-0.8-1.9-1.9-0.9-3.7
		c0.4-0.8,0.5-1.5,0.5-2.4c-2.7-3.5-6.8-6-9-10.3c4.9-1.8,10.6-2.1,14-7.1c0.1-1.4-0.8-3.2,1-4c-0.1-1.4-1.1-1.6-1.5-2.3
		c-2,0-4.6-0.8-5.8,0.2c-1.7,1.3-3.8-0.2-4.9,1.5c-4.2-0.1-8,1.8-12,2.4c-2.9,0.5-5.8,1.2-8.6,0.7c-1.9-0.4-3.7-1-5.8-0.7
		c-2.1-4.3-6.6-7.3-6.5-13c-1.3,0.2-1.2,1.6-1.3,2.1c-0.5,1.7-1.1,3-2.9,3.8c-1.1,0.5-2,1.7-1.7,3.3c0.1,0.4,0.1,1.2-0.2,1.4
		c-3.5,3-3.6,7.5-5.2,11.4c-0.9,2.3-1.8,4.7-1.7,7.3c0.1,3-1.5,5-3.8,6.7c-1.8,1.3-4.7,1.5-5.2,4.4c0,0.1-0.2,0.3-0.3,0.4
		c-2.8,1.5-6.1,1.4-9.1,2.1c-1.8,0.4-3.2-1.1-4.5-2.3c-1.5-1.4-2.7-3.1-4.8-4c-1.4-0.6-1.9-2.5-2.2-4
		C214.8,153.5,214.8,153.5,211.3,149.8z M268,108.7c6.1,1.6,11.9-1.1,17.9-0.6c1.7-1.4,3.7-1,5.6-1c1.4,0,2-0.9,2.3-1.8
		c-2.6-8-3.6-16.3-6.3-24.1c-8.2,6.5-12.6,15.8-18.3,24.2C268.7,106.2,267.4,107.3,268,108.7z"/>
	<path class="st0" d="M714.4,148.6c2.6-0.8,4.8-1.7,6.9-2.2c2.6-0.7,5-1.5,6.4-3.7c1.5-2.2,1.6-4.8,0.9-7.4c-3.6-1.1-7,0.4-10.4,1
		c-4.1,0.8-8.2,2.2-12.4,2.6c-1.4,0.1-2.2,1.3-3.6,1.1c-1.3-0.1-2.7-0.3-4,0c-2.4,0.5-4.3-1.5-6.6-1.1c-0.2,0-0.6-0.2-0.8-0.5
		c-2.4-3.6-6.7-6.3-6-11.5c0.1-0.5,0-1,0-1.5c0-0.1-0.2-0.2-0.5-0.5c-0.5,1.1-1.1,2.1-1.5,3.2c-0.2,0.4,0,1-0.1,1.4
		c-0.6,1.6-2.5,1.2-3.5,2.5s0.4,2.9-1,4.1c-1.7,1.4-1.9,3.5-2.6,5.4c-0.7,1.8-1.2,3.8-2.2,5.6c-0.9,1.7-1.9,3.7-1.5,5.8
		c0.4,2.5-0.9,4.5-1.8,6.7c-0.7,1.7-1.8,2-3.1,2.6c-1.5,0.7-3.3,1.4-3.7,2.9c-0.5,1.8-2,2.4-2.9,2.6c-2,0.4-4.1,0.2-6.1,1.1
		c-0.5,0.3-1.5,0.3-1.9,0c-3.6-2.8-8.1-4.6-10.2-9.1c-0.5-1,0.2-2.2-1-3.1c-1.1-0.8,0.3-2.6-0.8-3.6c-0.9-0.9-1.8-1.8-3-3.1
		c1.9-1.5,2.6-3.3,2.6-5.5c0-1.5,0.7-3,1.4-4.4c1.8-4.2,3.7-8.5,5.6-12.7c4-8.4,8.1-16.6,11.9-25c1.8-4,4.2-7.6,5.7-11.6
		c0.6-1.6,1.8-3.1,1.3-5c-0.3-1.2,0.7-1.7,1.2-2.5c1.4-2.2,2.8-4.5,3.8-6.9c0.9-2.3,3.4-3.9,3.1-6.7c2.4-4.1,4.9-8.3,7.4-12.4
		c0.2-0.4,0.7-1,1-1c3-0.1,5.3-2.8,8.6-2.2c3,0.5,5.5-1.3,7.6-3.2c5.2-4.7,9.9-9.8,13.4-15.9c0.8-1.4,2.1-2.5,3.3-3.8
		c3.1,2.3,6.7,3.1,10.3,3.9c3.9,0.9,7.7,2.2,11.3,4c1.9,0.9,3,2.1,3.2,4.4c0.2,1.8,1.1,3.6,0.9,5.6c-0.2,1.9,0.8,3.8,1.2,5.5
		c0.7,3.1,0.6,6.1,0.8,9.1c0.2,3.2,1.6,6,2.1,9.1c0.5,3.4,1.3,6.8,2.1,10.1c1,4.6,1.3,9.6,3.8,13.9c0.3,0.5,0,1.3,0,2.3
		c2.4-0.4,4.5,0.4,6.7-1c1.5-1,3.1,0,4.2,2c0.6,1,1.2,1.6,2.4,2c4.4,1.5,7.6,4.9,11.5,7.2c-3.2,6.9-8.8,11.5-14.6,15.7
		c-2.1,1.5-3,2.7-2.2,4.5c2.6,5.4,1.8,11.1,1.8,16.7c0,2.7-1.8,5.1-3.1,7.2c-4.4,6.8-10.2,12.5-18,15.1c-4.5,1.5-9.3,0.9-13.1-2.4
		c-1.2-1-2.3-0.9-3.7-1.4c0-2.1,0-4.2,0-6.3C719.6,155.8,717.4,152.2,714.4,148.6z M712.4,81.1c-5.8,5.3-14.5,19.5-19.5,28
		c2.4,0,4.7-0.1,7,0s4.4-0.7,6.6-0.9c2.4-0.3,4.7-0.6,7.1-1c2.1-0.4,4.5,0.3,6.1-1.6c-0.3-0.4-0.8-0.7-0.9-1.2
		c-1-4.6-1.9-9.2-3.1-13.7c-0.7-2.8-1.8-5.6-2.4-8.5C713.4,81.8,712.8,81.5,712.4,81.1z"/>
	<path class="st0" d="M1312.7,157.4c1.1,2.6-0.4,4.9-0.9,7.2c-0.8,3.8-4.4,5.5-7.6,6.4c-2.4,0.6-4.8,2.1-8,0.9
		c-1-1.7-3.5-2.2-5.4-3.5c-1.8-1.3-3.6-2.6-5.6-3.4c-1.9-0.8-3.6-1.7-3.4-4.6c0.1-1.8-1.3-3.7-1.8-5.7c-1.3-4.3-2.3-8.7-3.9-12.9
		c-0.3-0.7,0-1.6-0.2-2.4c-0.3-1.8,1.3-3.2,1.1-5.1c-0.2-1.5-0.8-3.4,0.9-4.6c-0.3-4.1,1.8-7.6,2.9-11.3c1.1-3.7,2.8-7.3,3.9-10.9
		c1.7-6.1,5.2-11.6,6.4-17.9c0.2-1.1,1.2-2.2,1.9-3.2c3.3-4.8,4.7-10.4,7.1-15.5c-0.4-0.3-0.6-0.6-0.8-0.7c-2.2-0.8-3.9,1.2-6.1,1.1
		c-1.8-0.1-3.9-0.8-5.7,0.7c-0.6,0.5-1.9,0.2-2.9,0.2c-6.5,0-13-0.1-19.5,0c-2.4,0-4.3-0.8-6-2.4c-4.7-4.5-5.2-4.9-7-11.6
		c-0.6-2.1-1.6-4-2.1-6.1c-0.9-3.9,1.4-7.1,2.3-10.6c0.3-1.1,1.6-1.4,2.9-1.4c5.2,0.1,10.3-0.2,15.5,0.1c2.9,0.2,5.3-1.4,8.1-1.2
		c2.6,0.3,5.5,0.7,7.9-0.1c3.6-1.2,7.1-0.7,10.6-0.8c3.7-0.1,7.3-2,10.8-0.9c2.1-1.4,2.2-3.9,4.9-5.2c0.4,0,1.6,0.1,2.7,0
		c1.7-0.1,3,0.4,4.4,1.5c2,1.6,4.5,2.5,7,0.8c1-0.7,2.3-0.3,3.4-0.3c3.7,0.2,7.3-0.3,10.8-1.8c0.4-0.2,1-0.2,1.4-0.2
		c4.8,0.5,9.3-1.8,14.1-1c6.8-2,13.7-0.6,20.6-1c3.4-0.2,6.2,0.8,8.6,3.4c2.3,2.6,5,4.9,7.4,7.5c2.2,2.4,3.6,5.1,3.7,8.5
		c0.1,2.8-0.8,5-2.8,6.9c-0.9,0.8-1.7,1.6-2.7,2.7c-2.9,0.2-6.2-0.6-8.9,1.8c-0.5,0.4-1.6,0.2-2.4,0.2c-3.2,0-6.3,0.1-9.5,0
		c-4.6-0.2-9,1-13.6,1.3c-4.2,0.3-8.5,0.8-12.6,1.9c-2.7,0.7-5.4,0.6-7.1,0.8c-3.1,0.8-2.5,3-3,4.3c-1.4,3.8-3.9,7.1-4.4,11.2
		c-4.3,7-5.7,15.3-9.9,22.4c-2.2,3.7-2.8,8.3-6,11.5c-0.6,3.4-1.9,6.5-3.1,9.7c-0.3,0.7-0.2,1.5-0.8,2.2c-2.2,3.1-3.4,7.7-4.4,11.2
		c-0.7,2.3-0.6,4.6-1.5,6.9c-1.3,3.1-0.1,6.3,2.7,8C1309.2,153.9,1310.9,155.8,1312.7,157.4z"/>
	<path class="st0" d="M840,52.5c-1.2,1.2-2.1,2.1-3.2,3.2c0.9,2.1-1.3,3.8-0.9,5.9c-2.1,2.4-2.1,5.8-4,8.4
		c-2.3,3.4-2.6,7.6-4.1,11.3c-1.3,3.3-1.9,7-4.4,9.7c-0.7,0.7-0.5,1.5-0.6,2.3c-0.5,3.3-0.8,6.5-2.8,9.3c-0.4,0.6-0.9,1.4-1,2
		c-0.7,4-3,7.5-4.2,11.3c-0.9,2.6-1.2,5.5-2.9,7.8c0.7,3.4-1.6,6.6-0.8,10.5c2.3,0,4.8,0,7.2,0c2.1,0,3.6-1.6,5.6-2.2
		c2.6-0.8,5.3-0.5,7.7-1.8c9.2,0.3,18.3-1.7,27.6-1c2.6,0.2,4.9,1.6,7.6,1.1c1.5-0.3,1.8,2.3,3.6,2c2.1,2.4,5.2,2.7,7.9,3.9
		c3.3,1.5,6.8,2.5,9.5,5.5c-0.1,5.4,3,10.5,1.9,16.3c-2.6,1.2-5.4,2-7.3,4.3c-3.4,0.3-6.7,0.1-10.1,0.8c-2.9,0.6-6.3-0.5-9.4-1.3
		c-3.1-0.7-6.1-0.9-9,0c-1,0.3-1.9,0.5-2.8,0.4c-5.3-0.7-10.4,1.4-15.6,1c-1.2-0.1-1.7,0.8-2.6,1.1c-5.5,1.6-11,3.5-16.5,4.7
		c-5.3,1.2-11,2.3-16.5,1.1c-2.6-0.6-5.5-0.6-8.1-2.1c-5.1-3-5.3-2.8-8.3-8.5c-2.2-4.2-4.8-8.3-6-13c-0.1-0.4-0.9-0.6-0.7-1.2
		c0.7-2.5-1.1-4.6-1.1-7.1c0.1-5,0-10,2.1-14.7c-0.5-4.6,2.1-8.5,3.2-12.7c0.8-3.1,1.3-6.3,2.6-9.4c2.2-4.9,3.9-10,5.8-15.1
		c2.1-5.6,4.1-11.3,6.3-16.9c2.9-7.2,4.9-14.6,7.4-21.9c1.4-4,2.4-8,3.6-12c0.6-2.1,1.5-3.2,3.3-4.3c1.7-1.1,3-0.6,4.8-0.1
		c3.3,1,6.1,3.2,9.7,3.2c1.1,1.6,2.7,0.9,4.1,0.9c1.9,0,3.6,0.6,4.7,2c2.3,3,5.1,5.7,6.3,9.4C840.2,48.2,839.9,50.3,840,52.5z"/>
	<path class="st1" d="M1257.4,165.1"/>
	<path class="st1" d="M1021.4,127.1"/>
</g>
</svg>
